<?xml version="1.0" standalone="no"?>
<!DOCTYPE svg PUBLIC "-//W3C//DTD SVG 20010904//EN"
 "http://www.w3.org/TR/2001/REC-SVG-20010904/DTD/svg10.dtd">
<svg version="1.0" xmlns="http://www.w3.org/2000/svg"
 width="480.000000pt" height="480.000000pt" viewBox="0 0 480.000000 480.000000"
 preserveAspectRatio="xMidYMid meet">
<metadata>
Created by potrace 1.11, written by Peter Selinger 2001-2013
</metadata>
<g transform="translate(0.000000,480.000000) scale(0.100000,-0.100000)"
fill="#000000" stroke="none">
<path d="M600 2400 l0 -1603 27 24 c15 13 37 33 49 44 25 24 151 135 208 185
40 35 94 83 146 130 34 31 123 110 310 275 80 71 147 131 150 134 3 3 39 35
80 71 41 36 77 67 80 70 3 3 43 39 90 80 47 41 89 80 95 86 5 5 46 41 90 80
44 38 82 72 85 75 3 3 48 43 100 89 52 46 100 88 106 94 27 26 159 142 172
152 19 14 39 -7 -233 234 -72 63 -148 131 -170 151 -22 20 -107 96 -190 169
-194 172 -286 254 -349 311 -28 25 -69 61 -91 80 -22 19 -44 39 -50 45 -5 5
-46 41 -90 80 -44 38 -102 90 -130 115 -27 25 -135 121 -240 214 -104 92 -202
179 -217 193 l-28 26 0 -1604z m625 501 c110 -97 205 -180 211 -186 6 -5 22
-19 35 -30 36 -31 196 -171 262 -228 31 -28 57 -54 57 -57 0 -4 -64 -62 -142
-131 -79 -68 -161 -140 -183 -160 -22 -20 -56 -50 -75 -65 -19 -16 -44 -38
-56 -49 -11 -11 -45 -40 -74 -65 -29 -25 -61 -52 -69 -60 -9 -9 -47 -43 -86
-75 -38 -33 -74 -66 -78 -72 -4 -7 -12 -13 -17 -13 -6 0 -10 261 -10 691 0
549 3 689 13 683 6 -5 102 -87 212 -183z"/>
<path d="M4149 3957 c-55 -50 -177 -158 -233 -207 -40 -35 -94 -83 -146 -130
-30 -28 -94 -84 -310 -276 -80 -70 -161 -142 -180 -160 -19 -17 -100 -89 -180
-159 -80 -71 -147 -131 -150 -134 -3 -3 -39 -35 -80 -71 -41 -36 -77 -68 -80
-71 -3 -3 -48 -43 -100 -89 -52 -46 -97 -86 -100 -89 -3 -3 -39 -35 -80 -71
-41 -36 -82 -72 -92 -80 -9 -9 -14 -20 -10 -26 4 -5 93 -86 197 -179 194 -172
258 -228 450 -400 61 -54 124 -110 140 -124 150 -133 360 -319 389 -346 6 -5
72 -64 146 -130 74 -66 140 -124 146 -130 6 -5 40 -35 75 -66 35 -31 105 -93
154 -137 l90 -80 3 799 c1 440 1 1159 0 1599 l-3 799 -46 -42z m-353 -2244
c-3 -4 -361 304 -432 372 -6 5 -24 21 -40 35 -87 74 -212 184 -284 249 l-35
31 35 31 c54 49 160 142 205 180 22 19 45 39 50 45 6 6 42 37 80 70 39 32 72
61 75 64 5 5 91 81 245 215 38 33 76 67 85 75 13 14 15 -52 18 -674 1 -379 0
-691 -2 -693z"/>
</g>
</svg>
