<?xml version="1.0" standalone="no"?>
<!DOCTYPE svg PUBLIC "-//W3C//DTD SVG 20010904//EN"
 "http://www.w3.org/TR/2001/REC-SVG-20010904/DTD/svg10.dtd">
<svg version="1.0" xmlns="http://www.w3.org/2000/svg"
 width="400.000000pt" height="400.000000pt" viewBox="0 0 400.000000 400.000000"
 preserveAspectRatio="xMidYMid meet">
<metadata>
Created by potrace 1.11, written by Peter Selinger 2001-2013
</metadata>
<g transform="translate(0.000000,400.000000) scale(0.100000,-0.100000)"
fill="#000000" stroke="none">
<path d="M1156 2923 c-2 -2 -32 -6 -67 -8 -73 -5 -86 -7 -156 -28 -28 -9 -54
-13 -57 -10 -3 4 -6 1 -6 -5 0 -7 -7 -12 -16 -12 -9 0 -46 -16 -82 -36 -183
-100 -279 -190 -379 -355 -57 -94 -87 -175 -119 -319 -15 -70 -10 -249 10
-345 15 -76 73 -227 98 -260 5 -5 26 -37 48 -70 66 -101 170 -200 275 -262 24
-14 128 -67 135 -69 3 0 19 -6 35 -13 17 -7 41 -15 55 -17 14 -3 37 -9 52 -15
15 -6 34 -9 42 -6 8 3 17 3 21 -1 12 -12 165 -17 235 -8 101 13 120 16 144 26
14 5 26 8 26 5 0 -2 28 8 63 24 34 15 81 36 105 46 23 10 42 22 42 27 0 4 6 8
13 8 7 0 23 9 35 20 12 11 24 20 27 20 17 0 176 157 227 225 36 49 50 55 64
26 11 -23 105 -132 154 -178 61 -57 152 -121 220 -155 36 -17 66 -31 67 -30 2
0 20 -6 40 -15 194 -81 483 -70 688 26 33 15 64 28 69 28 5 1 12 5 15 10 3 4
13 13 22 18 62 39 112 77 159 125 61 60 140 161 140 177 0 6 6 16 14 22 17 14
73 144 93 216 39 140 39 353 -1 490 -35 122 -75 204 -148 305 -41 57 -174 190
-190 190 -4 0 -16 8 -26 18 -36 34 -216 121 -267 128 -11 1 -21 3 -22 4 -2 2
-7 4 -13 5 -5 1 -11 3 -12 5 -5 3 -43 9 -102 16 -97 11 -120 11 -133 1 -8 -6
-13 -6 -13 0 0 5 -12 8 -27 6 -56 -5 -109 -15 -148 -25 -22 -6 -47 -13 -56
-14 -9 -2 -29 -9 -45 -15 -16 -7 -31 -13 -34 -14 -3 -1 -18 -7 -33 -13 -16 -7
-33 -12 -38 -12 -5 0 -9 -4 -9 -8 0 -5 -18 -17 -40 -27 -22 -10 -47 -26 -56
-36 -10 -11 -21 -19 -25 -19 -23 0 -154 -131 -249 -250 -14 -18 -22 -22 -28
-13 -53 81 -195 221 -282 280 -70 47 -200 117 -200 107 0 -3 -13 2 -30 11 -16
9 -30 13 -30 11 0 -3 -11 -1 -26 4 -25 10 -43 14 -124 25 -56 9 -139 13 -144
8z m99 -467 c163 -22 304 -141 441 -372 40 -68 44 -80 34 -102 -16 -36 -85
-153 -107 -181 -46 -60 -156 -169 -188 -187 -19 -10 -35 -22 -35 -27 0 -4 -4
-6 -9 -2 -5 3 -16 -1 -24 -9 -8 -8 -17 -13 -19 -10 -3 2 -22 -2 -44 -9 -52
-19 -186 -18 -243 0 -25 8 -53 17 -61 19 -8 3 -17 5 -19 4 -2 -1 -7 2 -10 7
-3 5 -23 19 -43 32 -49 29 -124 114 -154 173 -65 129 -64 290 3 422 28 55 118
156 139 156 8 0 14 5 14 11 0 8 75 49 103 55 4 1 8 3 10 4 3 3 44 11 80 14 15
2 29 5 32 7 4 5 35 3 100 -5z m1633 -1 c76 -7 175 -55 242 -117 148 -137 189
-374 95 -555 -22 -43 -87 -117 -130 -150 -39 -29 -126 -72 -156 -76 -8 -2 -18
-5 -24 -9 -5 -3 -31 -5 -58 -5 -26 0 -50 -2 -52 -5 -6 -6 -110 16 -147 31 -16
6 -28 8 -28 6 0 -3 -8 2 -17 10 -10 8 -20 14 -23 13 -8 -4 -32 17 -104 87 -75
75 -85 87 -153 192 -74 115 -75 123 -18 220 25 45 55 90 66 101 10 12 19 23
19 26 0 2 20 26 45 53 25 26 45 51 45 55 0 5 7 8 15 8 8 0 15 4 15 9 0 13 85
63 142 85 46 17 166 36 181 28 4 -2 25 -5 45 -7z"/>
</g>
</svg>
